<?xml version="1.0" standalone="no"?>
<!DOCTYPE svg PUBLIC "-//W3C//DTD SVG 20010904//EN"
 "http://www.w3.org/TR/2001/REC-SVG-20010904/DTD/svg10.dtd">
<svg version="1.0" xmlns="http://www.w3.org/2000/svg"
 width="219.000000pt" height="230.000000pt" viewBox="0 0 219.000000 230.000000"
 preserveAspectRatio="xMidYMid meet">

<g transform="translate(0.000000,230.000000) scale(0.100000,-0.100000)"
fill="#000000" stroke="none">
<path d="M950 2183 c-268 -42 -526 -195 -687 -407 -61 -81 -137 -239 -169
-351 -32 -110 -43 -313 -25 -433 75 -484 483 -854 971 -879 486 -25 911 277
1057 753 25 84 27 101 27 284 0 185 -1 200 -27 285 -59 190 -148 336 -287 468
-204 195 -439 288 -715 286 -66 -1 -131 -3 -145 -6z m325 -34 c314 -54 598
-273 736 -567 236 -502 24 -1100 -476 -1342 -162 -79 -237 -95 -445 -94 -161
0 -182 2 -265 27 -184 56 -338 149 -457 276 -393 416 -376 1049 39 1441 234
221 545 314 868 259z"/>
<path d="M1097 2113 c-4 -3 -7 -11 -7 -17 0 -6 4 -5 9 3 10 15 41 8 41 -9 0
-6 -27 -11 -62 -11 -35 -1 -51 -4 -35 -6 21 -3 27 -10 27 -29 0 -23 -10 -31
-23 -17 -4 3 -1 13 6 22 10 14 10 14 -5 3 -18 -15 -14 -42 7 -42 7 0 16 -6 18
-12 5 -13 11 34 8 60 -3 20 67 16 72 -5 2 -10 3 -5 1 11 -6 45 -36 71 -57 49z"/>
<path d="M895 2089 c-4 -6 -5 -12 -2 -15 2 -3 7 2 10 11 7 17 1 20 -8 4z"/>
<path d="M961 2063 c20 -3 28 -12 36 -41 l10 -37 -1 42 c-1 42 -1 43 -36 41
-27 -1 -29 -2 -9 -5z"/>
<path d="M1228 2063 c7 -3 16 -2 19 1 4 3 -2 6 -13 5 -11 0 -14 -3 -6 -6z"/>
<path d="M873 2053 c-7 -2 -13 -9 -13 -15 0 -6 7 -5 16 3 13 10 17 10 25 -2 7
-11 9 -11 9 4 0 17 -13 20 -37 10z"/>
<path d="M1260 2044 c0 -10 -6 -14 -14 -11 -11 4 -13 1 -9 -10 5 -14 9 -13 24
5 26 33 38 27 34 -15 -4 -32 -3 -34 4 -13 16 46 13 60 -14 60 -16 0 -25 -6
-25 -16z"/>
<path d="M957 2035 c-4 -8 -2 -17 3 -20 6 -4 10 3 10 14 0 25 -6 27 -13 6z"/>
<path d="M1107 2031 c-4 -17 -3 -21 5 -13 5 5 8 16 6 23 -3 8 -7 3 -11 -10z"/>
<path d="M825 2018 c11 -36 11 -39 -8 -51 -14 -10 -20 -9 -27 3 -8 13 -10 12
-10 -2 0 -20 34 -25 45 -8 4 6 11 7 17 4 8 -5 8 2 3 22 -4 16 -8 35 -8 42 0 6
-4 12 -9 12 -5 0 -6 -10 -3 -22z"/>
<path d="M1358 2018 c3 -14 2 -19 -6 -14 -8 4 -12 0 -12 -11 0 -15 4 -14 24 7
15 17 19 27 12 32 -19 13 -24 9 -18 -14z"/>
<path d="M790 2015 c0 -8 2 -15 4 -15 2 0 6 7 10 15 3 8 1 15 -4 15 -6 0 -10
-7 -10 -15z"/>
<path d="M871 2010 c0 -8 4 -22 9 -30 12 -18 12 -2 0 25 -6 13 -9 15 -9 5z"/>
<path d="M912 2000 c0 -14 2 -19 5 -12 2 6 2 18 0 25 -3 6 -5 1 -5 -13z"/>
<path d="M1400 2010 c0 -5 7 -7 15 -4 8 4 15 8 15 10 0 2 -7 4 -15 4 -8 0 -15
-4 -15 -10z"/>
<path d="M704 1988 c-4 -7 -3 -8 5 -4 7 5 17 -6 27 -29 8 -21 17 -35 20 -32 6
6 -28 77 -37 77 -4 0 -11 -5 -15 -12z"/>
<path d="M1412 1986 c-23 -11 -25 -28 -4 -32 7 -1 8 0 2 3 -6 2 0 13 12 24 26
21 24 22 -10 5z"/>
<path d="M1457 1978 c-2 -13 -8 -32 -12 -43 -14 -35 4 -10 20 28 8 20 11 37 6
37 -5 0 -11 -10 -14 -22z"/>
<path d="M1494 1981 c4 -6 0 -24 -9 -40 -8 -17 -15 -34 -15 -38 1 -4 10 9 21
30 17 32 22 36 39 27 11 -6 20 -8 20 -6 0 3 -14 13 -31 22 -17 8 -28 11 -25 5z"/>
<path d="M665 1970 c-4 -6 -1 -9 6 -8 7 2 15 -8 18 -22 3 -14 12 -26 18 -27 9
-2 8 8 -4 32 -17 36 -27 43 -38 25z"/>
<path d="M650 1941 c5 -11 15 -23 21 -27 6 -3 3 5 -6 20 -20 30 -30 35 -15 7z"/>
<path d="M1520 1924 c0 -8 5 -12 10 -9 6 4 8 11 5 16 -9 14 -15 11 -15 -7z"/>
<path d="M1568 1926 c-10 -7 -15 -16 -12 -19 3 -3 1 -15 -6 -26 -18 -36 -3
-23 19 15 24 41 24 48 -1 30z"/>
<path d="M932 1905 c-143 -33 -273 -106 -383 -215 -142 -141 -219 -331 -219
-540 0 -355 230 -651 581 -747 87 -24 288 -23 379 1 250 67 446 252 537 509
37 104 44 306 14 424 -65 262 -263 470 -526 553 -90 29 -289 36 -383 15z m337
-31 c266 -66 476 -275 548 -544 26 -97 23 -272 -6 -375 -69 -247 -262 -443
-511 -520 -83 -25 -258 -31 -353 -11 -343 71 -590 375 -590 726 0 342 232 641
558 721 93 23 267 24 354 3z"/>
<path d="M1071 1827 c-6 -8 -14 -31 -19 -53 -10 -51 -32 -54 -57 -8 -27 50
-46 61 -79 46 -23 -10 -26 -18 -26 -61 0 -27 -5 -53 -11 -57 -6 -3 -27 10 -48
30 -39 38 -57 43 -81 23 -20 -16 -23 -42 -10 -82 17 -51 5 -59 -44 -30 -53 31
-70 31 -89 1 -15 -23 -15 -27 8 -72 14 -27 21 -52 17 -55 -4 -4 -29 -1 -57 6
-49 13 -51 13 -73 -11 l-22 -25 25 -34 c15 -18 32 -36 40 -39 8 -3 12 -12 9
-21 -5 -11 -21 -15 -60 -15 -48 0 -56 -3 -66 -24 -15 -34 -5 -52 42 -76 50
-26 51 -46 3 -55 -57 -10 -73 -22 -73 -55 0 -33 16 -45 73 -55 20 -4 37 -12
37 -19 0 -6 -23 -23 -50 -38 -53 -30 -55 -33 -41 -71 8 -20 17 -24 63 -26 29
-1 57 -6 62 -11 5 -5 -9 -25 -33 -48 -46 -44 -49 -54 -22 -81 17 -17 25 -18
62 -10 23 6 46 12 50 15 4 2 12 -3 17 -12 7 -12 3 -27 -14 -52 -27 -39 -30
-62 -12 -80 18 -18 46 -15 89 10 52 29 62 17 42 -46 -16 -48 -16 -49 6 -68 31
-24 35 -23 80 17 21 19 44 35 50 35 6 0 11 -19 11 -47 0 -55 6 -68 38 -78 28
-8 54 12 72 56 15 34 50 41 50 9 0 -11 7 -37 15 -56 13 -31 18 -35 47 -32 30
3 35 8 49 53 10 27 21 51 25 52 5 2 20 -17 33 -42 18 -34 29 -45 48 -45 49 0
63 16 63 75 0 62 16 73 44 30 25 -38 60 -51 91 -35 28 15 31 39 14 89 -17 48
0 58 46 27 45 -31 66 -32 89 -7 18 20 14 39 -16 83 -19 28 -14 63 8 54 7 -3
32 -10 55 -16 40 -11 44 -10 61 12 24 32 23 37 -18 79 -39 40 -41 72 -5 62 12
-3 37 -2 56 1 65 13 56 77 -16 106 -40 17 -36 36 8 45 58 11 73 22 73 56 0 25
-6 33 -35 45 -19 7 -44 14 -55 14 -13 0 -20 7 -20 20 0 11 7 20 16 20 8 0 30
12 49 26 31 23 33 28 23 55 -10 30 -26 35 -91 30 -43 -4 -44 23 -3 60 39 34
44 53 21 83 -14 18 -19 18 -67 8 -29 -7 -55 -9 -60 -4 -5 5 2 29 16 56 24 45
24 49 10 72 -20 30 -27 30 -82 -2 -57 -34 -70 -23 -52 42 13 45 12 48 -9 65
-21 17 -25 17 -52 3 -16 -8 -35 -23 -42 -34 -6 -11 -20 -20 -29 -20 -15 0 -18
9 -18 55 0 49 -3 57 -24 67 -34 15 -52 5 -76 -42 -25 -49 -53 -51 -58 -5 -5
50 -22 75 -52 75 -15 0 -33 -6 -39 -13z m64 -39 c2 -13 6 -34 7 -48 3 -21 9
-26 39 -28 33 -3 37 0 54 38 14 31 23 40 39 38 18 -3 21 -10 20 -54 -1 -49 0
-51 32 -63 32 -11 34 -10 67 25 49 54 78 23 42 -46 -14 -28 -14 -29 15 -50 30
-21 31 -21 58 -3 40 27 56 32 70 21 18 -15 15 -24 -17 -61 l-30 -33 25 -32
c25 -31 26 -31 54 -17 63 33 107 2 57 -41 -14 -12 -31 -24 -38 -26 -9 -3 -9
-12 0 -40 l12 -36 55 5 c49 5 54 4 54 -14 0 -24 -14 -37 -55 -50 -27 -9 -30
-13 -27 -44 5 -42 2 -40 51 -46 46 -6 71 -27 53 -45 -5 -5 -31 -13 -56 -15
-34 -4 -46 -10 -46 -22 0 -9 -3 -25 -6 -36 -4 -16 4 -23 41 -38 31 -13 45 -25
45 -38 0 -16 -8 -19 -55 -19 -51 0 -56 -2 -71 -32 -15 -29 -15 -32 1 -41 31
-17 55 -47 55 -67 0 -24 -18 -25 -67 -5 -38 16 -54 11 -74 -27 -7 -13 -3 -27
17 -58 20 -30 24 -44 16 -52 -12 -12 -36 -4 -77 26 -18 14 -23 13 -52 -5 -32
-20 -32 -22 -18 -49 37 -72 1 -106 -50 -47 -30 35 -33 36 -63 25 -31 -12 -32
-14 -26 -59 5 -41 4 -49 -14 -58 -17 -9 -24 -7 -41 15 -11 14 -23 35 -26 45
-5 15 -14 19 -37 17 -27 -3 -33 -8 -45 -50 -7 -26 -18 -50 -24 -54 -18 -11
-37 18 -41 61 -4 39 -5 40 -43 43 -38 2 -41 1 -57 -38 -12 -28 -22 -40 -37
-40 -22 0 -25 10 -22 71 2 33 -1 38 -30 48 -30 10 -34 9 -64 -26 -51 -59 -87
-25 -49 48 14 28 14 31 -8 49 -29 24 -31 24 -70 0 -66 -40 -89 -15 -43 46 l24
32 -21 28 c-12 16 -23 30 -24 32 -1 2 -16 -4 -33 -12 -80 -42 -109 8 -34 58
27 17 28 21 19 53 -10 32 -13 34 -43 28 -45 -8 -85 4 -81 24 2 9 22 25 46 36
36 17 42 24 42 51 0 29 -4 32 -37 39 -89 16 -98 48 -19 65 49 10 54 14 58 41
4 26 0 32 -36 52 -27 14 -41 29 -41 42 0 17 7 20 53 20 50 0 55 2 66 29 11 28
10 32 -25 64 -58 52 -29 83 43 46 30 -15 32 -15 56 9 l25 25 -28 36 c-48 63
-18 96 48 51 36 -24 39 -24 63 -8 19 12 24 21 19 37 -30 93 -4 124 52 62 32
-35 35 -36 60 -22 25 12 27 18 24 65 -2 48 -1 51 22 51 18 0 28 -10 43 -40 16
-34 24 -40 51 -40 33 0 35 3 48 68 5 25 12 32 31 32 16 0 25 -7 29 -22z"/>
<path d="M1050 1664 c-260 -30 -460 -251 -460 -509 0 -192 111 -370 284 -455
150 -74 298 -75 446 -4 270 129 370 472 212 729 -97 158 -301 259 -482 239z
m164 -40 c176 -45 315 -187 356 -363 17 -74 8 -212 -19 -280 -91 -226 -337
-355 -564 -296 -222 58 -366 242 -367 468 0 145 47 254 155 356 117 111 285
155 439 115z"/>
<path d="M1090 1539 c0 -12 -17 -63 -39 -113 -21 -50 -42 -102 -46 -115 -14
-44 -6 -145 17 -208 24 -69 17 -93 -28 -93 -50 0 -68 69 -38 147 14 37 15 50
5 84 -26 88 -156 108 -206 32 -14 -21 -14 -24 0 -28 8 -3 22 -7 31 -10 13 -4
15 -12 9 -38 -21 -94 -23 -115 -14 -159 21 -97 102 -175 202 -193 36 -7 37 -8
37 -50 0 -40 2 -44 30 -50 17 -4 48 -4 70 0 39 7 40 7 40 50 0 42 0 42 42 49
102 16 182 93 208 197 9 38 9 58 -3 105 -17 68 -9 94 29 94 22 0 23 2 14 21
-20 37 -71 61 -118 56 -78 -8 -131 -87 -103 -155 18 -43 20 -109 4 -132 -9
-12 -25 -20 -43 -20 -41 0 -47 32 -19 95 44 100 36 184 -35 350 -14 33 -26 70
-26 83 0 12 -4 22 -10 22 -5 0 -10 -10 -10 -21z m44 -121 c38 -112 45 -214 19
-288 -11 -30 -23 -62 -27 -71 -5 -11 1 -26 16 -44 32 -37 73 -37 103 1 31 38
34 61 19 120 -26 99 -8 146 63 160 26 5 93 -17 93 -31 0 -2 -11 -15 -24 -28
-23 -23 -23 -24 -9 -84 14 -54 13 -66 -1 -115 -19 -67 -68 -126 -132 -158 -44
-22 -61 -24 -159 -24 -123 1 -158 11 -219 64 -66 59 -99 154 -77 223 21 64 21
80 0 103 -26 28 -19 41 28 50 46 9 98 -17 111 -56 11 -29 5 -77 -9 -86 -5 -3
-9 -30 -9 -60 0 -45 4 -59 25 -79 29 -30 75 -33 100 -5 19 21 18 37 -10 130
-22 73 -13 161 25 259 17 42 30 82 30 89 0 33 18 4 44 -70z m6 -618 l0 -40
-44 0 c-43 0 -44 1 -48 35 -2 20 -2 38 1 40 2 3 24 5 48 5 l43 0 0 -40z"/>
<path d="M1091 1384 c-1 -12 -13 -52 -27 -90 -16 -42 -23 -77 -19 -93 10 -43
39 -111 48 -111 15 0 48 90 48 132 0 43 -49 202 -50 162z m25 -112 c6 -30 4
-32 -20 -32 -30 0 -30 2 -14 47 14 37 25 33 34 -15z m4 -99 c-1 -5 -7 -19 -15
-33 l-13 -25 -11 28 c-15 38 -15 37 14 37 14 0 25 -3 25 -7z"/>
<path d="M877 1221 c3 -11 -8 -33 -26 -54 -42 -47 -44 -106 -5 -136 15 -12 35
-21 45 -21 21 0 26 25 8 36 -8 5 -10 33 -5 94 5 71 4 89 -8 93 -9 4 -12 0 -9
-12z m-4 -83 c-5 -29 -33 -40 -33 -14 0 14 29 50 35 44 2 -2 1 -15 -2 -30z
m11 -84 c11 -30 6 -37 -14 -19 -11 10 -20 22 -20 27 0 15 28 9 34 -8z"/>
<path d="M1298 1223 c0 -5 -2 -42 -2 -83 -1 -41 -5 -90 -10 -107 -11 -43 11
-45 54 -5 45 40 46 81 3 137 -19 25 -31 50 -28 55 3 6 1 10 -4 10 -6 0 -12 -3
-13 -7z m52 -109 c0 -8 -6 -14 -14 -14 -8 0 -15 14 -18 36 l-4 37 18 -23 c10
-12 18 -28 18 -36z m-10 -62 c0 -4 -9 -13 -20 -20 -16 -10 -20 -10 -20 1 0 8
3 17 7 20 9 9 33 9 33 -1z"/>
<path d="M528 1880 c-25 -20 -42 -28 -54 -23 -16 6 -17 5 -4 -9 8 -9 17 -14
19 -12 3 2 18 -8 35 -23 l31 -28 -24 27 c-13 15 -21 34 -18 42 8 20 37 21 37
2 0 -21 19 -30 35 -16 8 6 19 9 25 5 7 -4 1 9 -12 29 -13 20 -25 36 -28 36 -3
0 -22 -14 -42 -30z m59 -24 c-2 -5 -8 -11 -14 -13 -12 -4 -25 36 -16 50 7 12
35 -23 30 -37z"/>
<path d="M1661 1871 c20 -16 22 -21 10 -35 -8 -9 -21 -14 -29 -11 -12 4 -12 2
-4 -8 7 -8 8 -18 4 -23 -4 -5 2 -1 14 9 26 22 34 22 35 0 0 -12 2 -13 6 -5 3
7 -1 19 -7 27 -10 12 -10 15 2 15 8 0 18 -3 24 -7 5 -5 -7 6 -26 24 -19 18
-39 32 -44 33 -4 0 2 -8 15 -19z"/>
<path d="M433 1843 c-4 -9 -2 -18 3 -20 30 -11 38 -22 25 -37 -18 -22 -6 -46
21 -45 l23 2 -22 4 c-13 2 -23 11 -23 18 0 23 20 28 41 9 10 -9 19 -13 19 -7
0 9 -53 61 -67 66 -5 1 -7 8 -7 15 2 17 -6 15 -13 -5z"/>
<path d="M1635 1850 c-3 -6 1 -7 9 -4 18 7 21 14 7 14 -6 0 -13 -4 -16 -10z"/>
<path d="M409 1763 c-45 -47 -98 -120 -81 -109 7 4 24 1 38 -9 14 -9 28 -15
30 -12 2 2 -7 10 -21 17 -14 7 -25 19 -25 27 0 15 26 18 35 3 3 -5 16 -15 28
-21 14 -6 10 0 -11 18 -31 27 -32 29 -16 51 12 18 19 21 28 12 8 -8 7 -13 -4
-20 -11 -7 -4 -9 25 -8 23 0 30 3 18 5 -13 2 -23 11 -23 19 0 8 -5 14 -12 14
-6 0 -1 11 12 25 13 14 21 25 19 25 -3 0 -21 -17 -40 -37z"/>
<path d="M1714 1768 l-29 -33 31 28 30 27 28 -29 c15 -16 23 -32 18 -35 -5 -3
-15 1 -22 9 -14 17 -30 20 -30 5 0 -5 7 -10 15 -10 18 0 20 -21 3 -40 -7 -8
-2 -5 12 6 14 12 31 23 38 25 8 3 -2 18 -26 42 l-38 37 -30 -32z"/>
<path d="M1812 1689 c-12 -19 -11 -19 8 -9 11 6 18 15 15 21 -8 12 -8 12 -23
-12z"/>
<path d="M1844 1673 c8 -14 -27 -36 -39 -25 -5 4 -5 1 -1 -6 4 -7 0 -15 -11
-20 -10 -4 -19 -13 -20 -19 -4 -19 3 -16 29 10 13 13 33 29 43 35 17 9 18 13
6 24 -9 8 -11 9 -7 1z"/>
<path d="M1741 1630 c0 -8 4 -22 9 -30 12 -18 12 -2 0 25 -6 13 -9 15 -9 5z"/>
<path d="M1870 1631 c0 -6 4 -13 10 -16 6 -3 7 1 4 9 -7 18 -14 21 -14 7z"/>
<path d="M334 1614 c18 -17 37 -18 30 -1 -2 7 -13 13 -24 14 -18 2 -18 0 -6
-13z"/>
<path d="M1842 1595 c-17 -37 -14 -45 4 -12 9 16 14 31 11 33 -2 2 -9 -7 -15
-21z"/>
<path d="M1870 1590 c-8 -5 -10 -10 -5 -10 6 0 17 5 25 10 8 5 11 10 5 10 -5
0 -17 -5 -25 -10z"/>
<path d="M216 1427 c-38 -27 2 -95 42 -71 24 16 28 55 6 71 -10 7 -21 13 -24
13 -3 0 -14 -6 -24 -13z"/>
<path d="M1926 1427 c-38 -27 2 -95 42 -71 24 16 28 55 6 71 -10 7 -21 13 -24
13 -3 0 -14 -6 -24 -13z"/>
<path d="M1950 1135 c0 -34 1 -35 42 -35 47 0 46 11 -1 12 -26 1 -31 5 -31 25
0 26 15 31 24 8 5 -13 9 -13 26 -3 26 17 26 32 0 18 -14 -7 -20 -7 -20 0 0 5
-9 10 -20 10 -16 0 -20 -7 -20 -35z"/>
<path d="M160 1131 c0 -6 17 -7 38 -4 51 8 53 13 4 13 -23 0 -42 -4 -42 -9z"/>
<path d="M190 1091 l34 -6 -27 -18 c-15 -9 -27 -22 -27 -27 0 -12 38 -12 65 1
17 8 16 9 -7 6 -16 -3 -28 -2 -28 2 0 3 12 15 28 28 l27 22 -50 -1 c-45 -1
-46 -1 -15 -7z"/>
<path d="M1975 1066 c53 -15 54 -41 3 -40 -21 1 -38 -3 -38 -7 0 -5 18 -9 39
-9 31 0 41 4 46 20 10 30 -12 50 -54 49 l-36 -1 40 -12z"/>
<path d="M182 1002 c-19 -13 2 -62 27 -62 37 0 51 12 51 41 0 26 -3 29 -32 29
-18 0 -39 -4 -46 -8z m66 -24 c-4 -31 -53 -38 -61 -9 -5 22 5 29 41 30 19 1
23 -4 20 -21z"/>
<path d="M1935 980 c-4 -6 -4 -14 -1 -17 3 -4 6 -1 6 5 0 19 28 14 34 -5 4
-14 4 -14 3 2 -2 22 -31 32 -42 15z"/>
<path d="M1920 940 c0 -5 6 -10 14 -10 7 0 29 -2 47 -5 25 -4 29 -3 14 3 -37
17 -75 23 -75 12z"/>
<path d="M215 915 c-16 -7 -23 -14 -15 -14 8 0 29 6 45 14 17 7 23 14 15 14
-8 0 -28 -6 -45 -14z"/>
<path d="M1940 899 c20 -8 22 -12 10 -19 -8 -5 -23 -10 -32 -10 -10 0 -18 -4
-18 -9 0 -11 69 -36 77 -27 3 3 -6 8 -21 12 -32 8 -26 19 16 29 l33 7 -30 14
c-16 7 -37 13 -45 13 -8 0 -4 -5 10 -10z"/>
<path d="M211 869 c22 -19 31 -47 16 -52 -7 -2 -10 -7 -7 -10 3 -3 21 7 40 23
19 16 32 31 28 35 -3 4 -26 9 -50 12 -37 5 -41 3 -27 -8z m54 -19 c-3 -5 -10
-10 -16 -10 -5 0 -9 5 -9 10 0 6 7 10 16 10 8 0 12 -4 9 -10z"/>
<path d="M268 797 c-16 -6 -28 -15 -28 -19 0 -5 9 -4 19 2 31 16 35 12 17 -16
-25 -37 -16 -44 29 -22 30 14 33 17 13 13 -32 -6 -34 -3 -12 30 18 28 9 31
-38 12z"/>
<path d="M1870 802 c0 -4 16 -24 36 -43 35 -34 35 -34 29 -8 -5 21 -2 30 16
43 23 16 22 16 -29 16 -28 0 -52 -4 -52 -8z m60 -11 c0 -18 -18 -21 -30 -6
-10 13 -9 15 9 15 11 0 21 -4 21 -9z"/>
<path d="M1856 717 c3 -25 1 -28 -19 -22 -15 5 -12 0 11 -14 18 -12 38 -21 45
-21 6 0 4 5 -5 11 -26 14 -22 29 6 29 14 0 28 5 31 10 4 6 -8 10 -29 10 -19 0
-37 6 -39 13 -2 6 -3 -1 -1 -16z"/>
<path d="M332 689 c-18 -12 -31 -23 -29 -26 6 -5 67 30 67 40 0 10 -1 10 -38
-14z"/>
<path d="M353 659 c-18 -12 -33 -26 -33 -32 0 -5 9 -2 20 8 26 23 34 15 19
-19 -17 -36 -6 -42 30 -15 17 12 29 25 26 27 -2 3 -11 -1 -20 -8 -21 -17 -29
-7 -15 20 18 34 8 41 -27 19z"/>
<path d="M1795 638 c4 -23 1 -27 -22 -31 -27 -4 -26 -4 4 -6 17 0 35 -5 38
-11 3 -5 11 -10 17 -10 6 0 5 7 -3 16 -8 10 -20 29 -27 43 l-12 26 5 -27z"/>
<path d="M415 590 c-3 -5 -1 -19 5 -31 14 -24 8 -34 -16 -25 -9 3 -14 12 -10
21 3 8 1 15 -4 15 -14 0 -12 -24 2 -38 7 -7 21 -12 31 -12 17 0 18 5 13 35 -4
22 -3 35 4 35 5 0 10 -7 10 -15 0 -8 5 -15 10 -15 14 0 13 13 -2 28 -15 15
-35 16 -43 2z"/>
<path d="M1710 561 c-12 -24 -4 -48 21 -62 27 -14 59 6 59 36 0 26 -23 34 -36
13 -5 -8 -2 -9 10 -5 13 5 17 2 14 -11 -5 -25 -44 -28 -57 -3 -9 16 -7 23 11
35 18 13 19 16 6 16 -10 0 -22 -9 -28 -19z"/>
<path d="M486 537 c2 -7 -5 -22 -16 -34 -31 -34 -24 -40 9 -9 19 18 34 25 43
20 7 -4 4 2 -6 14 -21 24 -38 29 -30 9z"/>
<path d="M1642 498 c-19 -19 -14 -46 12 -63 27 -18 53 -11 61 16 14 43 -41 79
-73 47z m59 -20 c10 -18 8 -24 -7 -35 -16 -11 -21 -11 -36 5 -22 22 -14 52 13
52 10 0 24 -10 30 -22z"/>
<path d="M518 467 c-14 -17 -24 -34 -21 -37 6 -6 53 47 53 61 0 13 -2 12 -32
-24z"/>
<path d="M568 468 c10 -12 8 -20 -9 -42 -12 -15 -19 -29 -16 -32 3 -3 14 8 26
25 15 20 27 28 39 25 15 -5 15 -4 2 5 -8 7 -24 17 -35 23 -17 10 -18 9 -7 -4z"/>
<path d="M1569 425 c24 -49 36 -58 60 -45 13 6 20 14 17 18 -4 3 -12 0 -18 -6
-9 -9 -19 -4 -40 21 -16 17 -25 23 -19 12z"/>
<path d="M614 405 c-21 -33 -15 -59 16 -63 19 -2 29 5 42 28 9 16 13 30 7 30
-5 0 -15 -11 -21 -25 -11 -25 -32 -33 -43 -15 -3 5 1 23 10 40 19 36 12 40
-11 5z"/>
<path d="M1503 403 c-19 -7 -15 -48 6 -67 25 -23 61 -6 61 27 0 38 -29 56 -67
40z m53 -29 c11 -44 -38 -56 -51 -13 -8 25 1 39 25 39 13 0 22 -9 26 -26z"/>
<path d="M708 381 c12 -7 11 -14 -3 -41 -9 -17 -14 -34 -11 -37 3 -3 13 10 22
30 12 24 22 34 33 30 9 -2 5 3 -9 11 -14 8 -29 15 -35 15 -5 1 -4 -3 3 -8z"/>
<path d="M1450 368 c0 -9 5 -20 10 -23 6 -3 10 -11 10 -16 0 -6 -13 -2 -30 7
-39 24 -46 14 -21 -33 11 -21 20 -32 21 -25 0 7 -5 23 -11 34 -11 20 -11 20
20 2 40 -24 47 -14 22 33 -11 21 -20 30 -21 21z"/>
<path d="M762 323 c-12 -38 -9 -54 11 -52 9 0 9 2 0 5 -23 10 -2 34 26 29 24
-5 25 -5 4 4 -27 12 -30 31 -5 31 14 0 15 2 2 10 -23 15 -26 13 -38 -27z"/>
<path d="M1373 327 c9 -26 -22 -35 -39 -12 -18 24 -17 3 1 -45 13 -33 14 -33
14 -9 1 33 31 48 38 19 3 -11 9 -20 14 -20 10 0 -9 61 -24 75 -7 7 -8 4 -4 -8z"/>
<path d="M882 308 c-7 -7 -12 -25 -12 -40 0 -21 6 -29 25 -34 31 -8 55 10 55
42 0 35 -44 56 -68 32z m47 -12 c16 -19 -4 -58 -27 -54 -21 4 -28 34 -12 53
16 19 24 19 39 1z"/>
<path d="M1258 309 c-19 -11 -23 -45 -9 -67 11 -18 53 -12 59 8 4 12 2 13 -9
3 -19 -19 -37 -16 -44 7 -8 26 11 51 32 43 11 -4 14 -2 9 5 -9 14 -16 15 -38
1z"/>
<path d="M968 260 c-2 -22 0 -40 4 -40 5 0 8 9 8 21 0 16 4 19 23 14 20 -5 20
-5 -3 9 -19 11 -21 16 -10 19 8 3 22 8 30 10 8 3 1 6 -16 6 -30 1 -32 -1 -36
-39z"/>
<path d="M1082 293 c12 -3 18 -17 21 -46 l4 -42 1 42 c2 30 7 43 20 46 9 3 -1
5 -23 5 -22 0 -32 -2 -23 -5z"/>
<path d="M1156 263 c8 -47 13 -52 44 -42 l25 7 -27 1 c-24 1 -28 5 -28 30 0
23 5 31 23 34 16 3 13 5 -11 6 -33 1 -33 1 -26 -36z"/>
<path d="M1188 263 c6 -2 18 -2 25 0 6 3 1 5 -13 5 -14 0 -19 -2 -12 -5z"/>
</g>
</svg>
