<?xml version="1.0" standalone="no"?>
<!DOCTYPE svg PUBLIC "-//W3C//DTD SVG 20010904//EN"
 "http://www.w3.org/TR/2001/REC-SVG-20010904/DTD/svg10.dtd">
<svg version="1.0" xmlns="http://www.w3.org/2000/svg"
 width="400.000000pt" height="400.000000pt" viewBox="0 0 400.000000 400.000000"
 preserveAspectRatio="xMidYMid meet">

<g transform="translate(0.000000,400.000000) scale(0.100000,-0.100000)"
fill="#000000" stroke="none">
<path d="M986 3174 c-66 -21 -140 -95 -159 -160 -11 -40 -13 -138 -10 -544 2
-272 6 -505 8 -518 5 -20 7 -21 21 -8 11 12 21 13 40 6 14 -6 106 -10 205 -10
152 0 181 2 185 15 6 14 8 14 19 -1 11 -16 12 -16 18 0 5 12 3 15 -6 10 -9 -5
-9 -4 1 7 8 9 12 60 12 178 l0 165 263 -261 c144 -143 276 -268 293 -277 88
-44 188 -39 261 12 21 15 161 152 312 304 248 251 273 279 260 295 -11 15 -11
16 1 6 8 -7 18 -13 22 -13 9 0 6 29 -5 48 -5 7 -3 12 4 12 7 0 9 3 5 8 -4 4
-11 7 -14 7 -4 0 -72 64 -150 142 -102 100 -150 141 -165 141 -14 -1 -88 -66
-210 -187 -103 -102 -191 -187 -195 -189 -4 -1 -183 174 -396 389 -219 219
-406 399 -427 409 -53 27 -133 33 -193 14z"/>
<path d="M2426 2755 c4 -9 16 -21 28 -27 19 -10 19 -9 -3 16 -28 30 -33 32
-25 11z"/>
<path d="M2756 2448 c16 -18 17 -21 2 -15 -12 4 -16 1 -15 -14 2 -24 9 -24 23
-1 9 14 9 22 -1 35 -7 9 -16 17 -20 17 -5 0 0 -10 11 -22z"/>
<path d="M2877 2249 c-122 -29 -197 -123 -197 -249 0 -128 76 -221 204 -250
91 -20 199 22 255 101 83 114 50 289 -69 364 -30 19 -125 47 -148 44 -4 -1
-24 -5 -45 -10z"/>
<path d="M952 1294 c-156 -77 -185 -301 -54 -415 50 -44 97 -62 167 -63 104
-2 186 48 231 140 49 100 32 208 -44 288 -52 54 -103 76 -183 76 -50 0 -77 -6
-117 -26z"/>
<path d="M2825 1300 c-93 -48 -145 -130 -145 -230 0 -102 44 -177 132 -225
141 -77 319 -2 364 153 31 107 -15 228 -110 287 -42 25 -61 30 -125 33 -60 2
-84 -2 -116 -18z"/>
</g>
</svg>
