<?xml version="1.0" standalone="no"?>
<!DOCTYPE svg PUBLIC "-//W3C//DTD SVG 20010904//EN"
 "http://www.w3.org/TR/2001/REC-SVG-20010904/DTD/svg10.dtd">
<svg version="1.0" xmlns="http://www.w3.org/2000/svg"
 width="3000.000000pt" height="2999.000000pt" viewBox="0 0 3000.000000 2999.000000"
 preserveAspectRatio="xMidYMid meet">

<g transform="translate(0.000000,2999.000000) scale(0.100000,-0.100000)"
fill="#000000" stroke="none">
<path d="M3265 29589 c-285 -22 -619 -99 -892 -205 -663 -256 -1231 -728
-1606 -1335 -245 -397 -396 -835 -464 -1344 -17 -123 -18 -774 -21 -11535 -2
-7939 0 -11469 8 -11615 5 -115 19 -268 30 -339 169 -1094 860 -2011 1865
-2478 302 -140 644 -235 1015 -280 85 -11 2286 -13 11675 -13 11191 0 11574 1
11705 18 539 74 984 239 1418 526 310 205 622 506 843 815 309 432 499 909
582 1466 l22 145 0 11595 c0 11185 -1 11600 -18 11730 -101 745 -417 1390
-932 1905 -547 548 -1269 882 -2039 945 -154 12 -23033 12 -23191 -1z m12875
-2924 l0 -385 -387 2 -388 3 -1 380 c0 209 3 382 7 385 4 3 178 4 388 2 l381
-2 0 -385z m920 -1070 l0 -385 -385 0 -385 0 0 385 0 385 385 0 385 0 0 -385z
m-3530 -765 l0 -540 -540 0 -540 0 0 540 0 540 540 0 540 0 0 -540z m2610
-310 l0 -390 -384 0 c-341 0 -385 2 -390 16 -3 9 -6 177 -6 374 0 197 3 365 6
374 5 14 49 16 390 16 l384 0 0 -390z m5215 0 l0 -385 -385 0 -385 0 -3 388
-2 387 387 -2 388 -3 0 -385z m-2915 -460 l0 -540 -540 0 -540 0 0 540 0 540
540 0 540 0 0 -540z m-3530 -310 l0 -540 -537 2 -538 3 -3 538 -2 537 540 0
540 0 0 -540z m-2450 -300 l0 -540 -540 0 -540 0 0 540 0 540 540 0 540 0 0
-540z m7558 380 l262 0 0 -385 0 -385 -385 0 -385 0 0 384 c0 298 3 386 13
390 6 3 62 4 122 1 61 -3 228 -5 373 -5z m-8938 -1760 l0 -540 -540 0 -540 0
0 540 0 540 540 0 540 0 0 -540z m1378 0 l-3 -540 -535 0 -535 0 -3 540 -2
540 540 0 540 0 -2 -540z m1380 0 l-3 -540 -535 0 -535 0 -3 540 -2 540 540 0
540 0 -2 -540z m1382 2 c0 -296 -2 -541 -4 -543 -2 -2 -245 -3 -540 -1 l-536
2 0 540 0 540 540 0 540 0 0 -538z m1378 -2 l-3 -540 -535 -1 -535 0 -3 541
-2 540 540 0 540 0 -2 -540z m1380 -2 l-3 -543 -485 -3 c-267 -2 -509 0 -537
3 l-53 6 0 540 0 539 540 0 540 0 -2 -542z m1842 -1228 l0 -540 -540 0 -540 0
0 540 0 540 540 0 540 0 0 -540z m-10122 -152 l2 -538 -540 0 -540 0 0 540 0
540 538 -2 537 -3 3 -537z m1380 0 l2 -538 -540 0 -540 0 0 540 0 540 538 -2
537 -3 3 -537z m1382 2 l0 -540 -540 0 -540 0 0 540 0 540 540 0 540 0 0 -540z
m1378 -2 l2 -538 -540 0 -540 0 0 540 0 540 538 -2 537 -3 3 -537z m1382 2 l0
-540 -540 0 -540 0 0 540 0 540 540 0 540 0 0 -540z m1380 0 l0 -540 -540 0
-540 0 0 540 0 540 540 0 540 0 0 -540z m1380 0 l0 -540 -540 0 -540 0 0 540
0 540 540 0 540 0 0 -540z m4450 -155 l0 -385 -387 2 -388 3 -3 370 c-1 203 0
376 3 382 3 10 90 13 390 13 l385 0 0 -385z m-14112 -1227 l2 -538 -540 0
-540 0 0 540 0 540 538 -2 537 -3 3 -537z m1380 0 l2 -538 -540 0 -540 0 0
540 0 540 538 -2 537 -3 3 -537z m1380 0 l2 -538 -540 0 -540 0 0 540 0 540
538 -2 537 -3 3 -537z m1380 0 l2 -538 -540 0 -540 0 0 540 0 540 538 -2 537
-3 3 -537z m5522 2 l0 -540 -540 0 -540 0 0 540 0 540 540 0 540 0 0 -540z
m1380 0 l0 -540 -540 0 -540 0 0 540 0 540 540 0 540 0 0 -540z m2130 0 l0
-540 -540 0 -540 0 0 533 c0 294 3 537 7 540 3 4 246 7 540 7 l533 0 0 -540z
m-13172 -1382 l2 -538 -540 0 -540 0 0 540 0 540 538 -2 537 -3 3 -537z m1380
0 l2 -538 -540 0 -540 0 0 540 0 540 538 -2 537 -3 3 -537z m1380 0 l2 -538
-540 0 -540 0 0 540 0 540 538 -2 537 -3 3 -537z m8282 2 l0 -540 -540 0 -540
0 0 540 0 540 540 0 540 0 0 -540z m1380 0 l0 -540 -540 0 -540 0 0 533 c0
294 3 537 7 540 3 4 246 7 540 7 l533 0 0 -540z m1380 0 l0 -540 -540 0 -540
0 0 533 c0 294 3 537 7 540 3 4 246 7 540 7 l533 0 0 -540z m-13802 -1382 l2
-538 -540 0 -540 0 0 540 0 540 538 -2 537 -3 3 -537z m1380 0 l2 -538 -540 0
-540 0 0 540 0 540 538 -2 537 -3 3 -537z m1382 2 l0 -540 -540 0 -540 0 0
540 0 540 540 0 540 0 0 -540z m8280 0 l0 -540 -540 0 -540 0 0 540 0 540 540
0 540 0 0 -540z m1380 0 l0 -540 -540 0 -540 0 0 533 c0 294 3 537 7 540 3 4
246 7 540 7 l533 0 0 -540z m1380 0 l0 -540 -540 0 -540 0 0 540 0 540 540 0
540 0 0 -540z m-13802 -1379 c1 -315 -2 -537 -7 -540 -5 -3 -248 -5 -540 -3
l-531 2 0 540 0 540 538 -2 537 -3 3 -534z m1380 -3 l2 -538 -540 0 -540 0 0
540 0 540 538 -2 537 -3 3 -537z m1380 0 c2 -496 1 -537 -15 -540 -9 -2 -252
-2 -540 0 l-523 2 0 534 c0 293 3 536 7 539 3 4 245 6 537 5 l531 -3 3 -537z
m8280 0 l2 -538 -540 0 -540 0 0 533 c0 294 3 537 7 540 3 4 245 6 537 5 l531
-3 3 -537z m1382 3 l0 -539 -517 -4 c-285 -2 -528 -2 -540 0 l-23 4 0 532 c0
293 3 536 7 539 3 4 246 7 540 7 l533 0 0 -539z m1380 0 l0 -538 -31 -7 c-41
-8 -435 -8 -777 1 l-272 6 0 532 c0 292 3 535 7 538 3 4 246 7 540 7 l533 0 0
-539z m-13805 -1386 l0 -540 -537 -3 -538 -2 0 545 0 545 538 -2 537 -3 0
-540z m1380 0 l0 -540 -537 -3 -538 -2 0 545 0 545 538 -2 537 -3 0 -540z
m1380 0 l0 -540 -537 -3 -538 -2 0 545 0 545 538 -2 537 -3 0 -540z m1380 0
l0 -540 -537 -3 -538 -2 0 545 0 545 538 -2 537 -3 0 -540z m5525 0 l0 -545
-537 2 -538 3 -3 543 -2 542 540 0 540 0 0 -545z m1378 3 l-3 -543 -535 0
-535 0 -3 543 -2 542 540 0 540 0 -2 -542z m1382 -3 l0 -545 -537 2 -538 3 -3
530 c-1 292 0 536 3 543 3 9 121 12 540 12 l535 0 0 -545z m1380 0 l0 -545
-537 2 -538 3 -3 530 c-1 292 0 536 3 543 3 9 121 12 540 12 l535 0 0 -545z
m-12425 -1380 l0 -540 -535 0 -535 0 -3 530 c-1 292 0 536 3 543 3 10 116 12
537 10 l533 -3 0 -540z m1380 0 l0 -540 -537 -3 -538 -2 0 538 c0 296 3 542 7
545 3 4 245 6 537 5 l531 -3 0 -540z m1380 0 l0 -540 -535 0 -535 0 -3 530
c-1 292 0 536 3 543 3 10 116 12 537 10 l533 -3 0 -540z m1380 0 l0 -540 -537
-3 -538 -2 0 538 c0 296 3 542 7 545 3 4 245 6 537 5 l531 -3 0 -540z m1380 0
l0 -540 -535 0 -535 0 -3 543 -2 542 537 -2 538 -3 0 -540z m1383 -2 l2 -543
-540 0 -540 0 0 538 c0 296 3 542 7 545 3 4 245 6 537 5 l531 -3 3 -542z
m1380 -1 l2 -542 -537 2 -538 3 -3 530 c-1 292 0 536 3 543 3 10 116 12 537
10 l533 -3 3 -543z m1380 0 l2 -542 -537 2 -538 3 -3 530 c-1 292 0 536 3 543
3 10 116 12 537 10 l533 -3 3 -543z m1382 3 l0 -545 -537 2 -538 3 -3 530 c-1
292 0 536 3 543 3 9 121 12 540 12 l535 0 0 -545z m-11045 -1378 l0 -537 -535
0 -535 0 -3 532 c-2 419 0 533 10 540 7 4 249 7 538 5 l525 -2 0 -538z m1380
-2 l0 -540 -535 0 -535 0 -3 530 c-1 292 0 536 3 543 4 10 111 12 537 10 l533
-3 0 -540z m1380 0 l0 -540 -535 0 -535 0 -3 534 c-2 421 0 536 10 543 7 4
249 7 538 5 l525 -2 0 -540z m1380 0 l0 -540 -535 0 -535 0 -3 530 c-1 292 0
536 3 542 3 10 121 12 537 10 l533 -2 0 -540z m1380 0 l0 -540 -535 0 -535 0
-3 530 c-1 292 0 536 3 543 3 10 116 12 537 10 l533 -3 0 -540z m1380 0 l0
-540 -535 0 -535 0 -3 530 c-1 292 0 536 3 543 3 10 116 12 537 10 l533 -3 0
-540z m1380 0 l0 -540 -535 0 -535 0 -3 534 c-2 421 0 536 10 543 7 4 249 7
538 5 l525 -2 0 -540z m1380 0 l0 -540 -535 0 -535 0 -3 530 c-1 292 0 536 2
542 4 10 125 12 538 10 l533 -2 0 -540z m1380 0 l0 -540 -535 0 -535 0 -3 530
c-1 292 0 536 3 543 3 10 116 12 537 10 l533 -3 0 -540z m-9660 -1380 l0 -540
-495 -3 c-272 -2 -514 0 -537 3 l-43 6 0 533 c0 293 3 536 7 540 4 3 246 5
537 4 l531 -3 0 -540z m1380 0 l0 -540 -535 0 -535 0 -3 530 c-1 292 0 536 3
543 3 10 116 12 537 10 l533 -3 0 -540z m1380 0 l0 -540 -537 -3 -538 -2 0
538 c0 296 3 542 7 545 3 4 245 6 537 5 l531 -3 0 -540z m1380 0 l0 -540 -535
0 -535 0 -3 530 c-1 292 0 536 3 543 3 10 116 12 537 10 l533 -3 0 -540z
m1383 3 l2 -538 -22 -5 c-13 -3 -255 -4 -538 -3 l-515 3 -3 530 c-1 292 0 536
3 543 4 10 111 12 537 10 l533 -3 3 -537z m1380 -6 l2 -542 -537 2 -538 3 -3
530 c-1 292 0 536 3 543 3 10 116 12 537 10 l533 -3 3 -543z m1377 3 l0 -540
-535 0 -535 0 -3 530 c-1 292 0 536 3 543 3 10 116 12 537 10 l533 -3 0 -540z
m-6900 -1380 l0 -540 -537 -3 -538 -2 0 545 0 545 538 -2 537 -3 0 -540z
m1380 0 l0 -540 -537 -3 -538 -2 0 538 c0 296 3 542 7 545 3 4 245 6 537 5
l531 -3 0 -540z m1380 0 l0 -540 -535 0 -535 0 -3 530 c-1 292 0 536 3 543 3
10 116 12 537 10 l533 -3 0 -540z m1380 0 l0 -540 -537 -3 -538 -2 0 538 c0
296 3 542 7 545 3 4 245 6 537 5 l531 -3 0 -540z m1380 0 l0 -540 -535 0 -535
0 -3 543 -2 542 537 -2 538 -3 0 -540z m-4137 -1385 l2 -540 -540 0 -540 0 0
538 c0 296 2 541 4 543 2 2 244 3 538 2 l533 -3 3 -540z m2760 0 l2 -540 -540
0 -540 0 0 538 c0 296 2 541 4 543 2 2 244 3 538 2 l533 -3 3 -540z m-4138 0
l0 -540 -540 0 -540 0 0 540 0 540 540 0 540 0 0 -540z m2760 0 l0 -540 -540
0 -540 0 0 540 0 540 540 0 540 0 0 -540z m2760 0 l0 -540 -540 0 -540 0 0
540 0 540 540 0 540 0 0 -540z m-4142 -1377 l-3 -538 -537 -3 -538 -2 0 540 0
540 540 0 540 0 -2 -537z m1382 -3 l0 -540 -540 0 -540 0 0 540 0 540 540 0
540 0 0 -540z m1380 0 l0 -540 -540 0 -540 0 0 540 0 540 540 0 540 0 0 -540z
m-1380 -1380 l0 -540 -537 2 -538 3 -3 538 -2 537 540 0 540 0 0 -540z"/>
</g>
</svg>
