<?xml version="1.0" standalone="no"?>
<!DOCTYPE svg PUBLIC "-//W3C//DTD SVG 20010904//EN"
 "http://www.w3.org/TR/2001/REC-SVG-20010904/DTD/svg10.dtd">
<svg version="1.0" xmlns="http://www.w3.org/2000/svg"
 width="170.000000pt" height="170.000000pt" viewBox="0 0 170.000000 170.000000"
 preserveAspectRatio="xMidYMid meet">

<g transform="translate(0.000000,170.000000) scale(0.100000,-0.100000)"
fill="#000000" stroke="none">
<path d="M443 1292 c-23 -9 -45 -21 -50 -25 -4 -5 -24 -15 -43 -23 -27 -12
-32 -17 -20 -24 12 -8 11 -10 -7 -10 -30 0 -34 -11 -13 -33 14 -14 19 -15 23
-4 6 15 77 11 77 -4 0 -6 8 -5 19 1 11 5 31 10 45 10 24 0 26 3 26 49 0 27 3
56 6 65 8 20 -9 20 -63 -2z"/>
<path d="M846 1236 c-20 -24 -36 -46 -36 -49 0 -9 86 -4 98 6 8 6 12 6 12 -1
0 -12 61 -20 86 -12 16 6 14 9 -11 26 -17 10 -34 24 -40 30 -11 11 -61 44 -68
44 -3 0 -21 -20 -41 -44z"/>
<path d="M692 960 c0 -14 2 -19 5 -12 2 6 2 18 0 25 -3 6 -5 1 -5 -13z"/>
<path d="M567 935 c-37 -19 -38 -19 -49 -3 -14 19 0 -76 19 -137 38 -122 108
-220 205 -288 93 -65 92 -65 152 -4 30 29 61 67 69 84 l16 31 -64 31 c-78 39
-157 123 -180 192 -13 38 -20 47 -33 42 -9 -3 -14 -3 -10 1 11 13 -26 42 -49
38 -13 -3 -23 1 -23 7 0 7 -4 10 -9 7 -5 -4 -11 -2 -13 4 -2 6 -14 4 -31 -5z"/>
<path d="M1518 933 l-66 -4 -32 -79 c-35 -86 -95 -158 -163 -195 l-37 -20 0
-108 0 -109 28 6 c100 24 237 127 303 228 37 59 89 199 89 243 0 23 -28 48
-47 43 -4 -1 -38 -3 -75 -5z"/>
</g>
</svg>
