<?xml version="1.0" standalone="no"?>
<!DOCTYPE svg PUBLIC "-//W3C//DTD SVG 20010904//EN"
 "http://www.w3.org/TR/2001/REC-SVG-20010904/DTD/svg10.dtd">
<svg version="1.0" xmlns="http://www.w3.org/2000/svg"
 width="1236.000000pt" height="905.000000pt" viewBox="0 0 1236.000000 905.000000"
 preserveAspectRatio="xMidYMid meet">

<g transform="translate(0.000000,905.000000) scale(0.100000,-0.100000)"
fill="#000000" stroke="none">
<path d="M4377 8783 c18 -2 50 -2 70 0 21 2 7 4 -32 4 -38 0 -55 -2 -38 -4z"/>
<path d="M8018 8783 c12 -2 30 -2 40 0 9 3 -1 5 -23 4 -22 0 -30 -2 -17 -4z"/>
<path d="M8103 8773 c9 -2 23 -2 30 0 6 3 -1 5 -18 5 -16 0 -22 -2 -12 -5z"/>
<path d="M8164 8769 c-3 -5 6 -9 20 -9 31 0 34 6 6 13 -11 3 -23 1 -26 -4z"/>
<path d="M4258 8763 c7 -3 16 -2 19 1 4 3 -2 6 -13 5 -11 0 -14 -3 -6 -6z"/>
<path d="M8319 8735 c18 -8 36 -15 40 -15 13 1 -45 29 -59 29 -8 0 0 -6 19
-14z"/>
<path d="M4090 8714 c-17 -9 -20 -14 -9 -14 9 0 22 7 29 15 15 18 13 18 -20
-1z"/>
<path d="M8401 8706 c2 -2 20 -11 39 -20 l35 -17 -25 20 c-14 11 -31 21 -39
21 -8 0 -12 -2 -10 -4z"/>
<path d="M4298 8693 c7 -3 16 -2 19 1 4 3 -2 6 -13 5 -11 0 -14 -3 -6 -6z"/>
<path d="M8480 8671 c0 -5 7 -11 15 -15 8 -3 15 -1 15 3 0 5 -7 11 -15 15 -8
3 -15 1 -15 -3z"/>
<path d="M8340 8650 c0 -5 4 -10 9 -10 5 0 18 -3 28 -7 17 -6 17 -6 1 10 -18
19 -38 22 -38 7z"/>
<path d="M3998 8643 c6 -2 18 -2 25 0 6 3 1 5 -13 5 -14 0 -19 -2 -12 -5z"/>
<path d="M4080 8640 c0 -6 7 -10 15 -10 8 0 15 2 15 4 0 2 -7 6 -15 10 -8 3
-15 1 -15 -4z"/>
<path d="M3902 8610 c-23 -17 -42 -33 -42 -36 0 -4 15 5 34 20 19 14 39 26 45
26 5 0 13 5 16 10 12 19 -12 10 -53 -20z"/>
<path d="M8571 8617 c2 -1 13 -9 24 -17 19 -14 19 -14 6 3 -7 9 -18 17 -24 17
-6 0 -8 -1 -6 -3z"/>
<path d="M8500 8581 c0 -5 5 -13 10 -16 6 -3 10 -2 10 4 0 5 -4 13 -10 16 -5
3 -10 2 -10 -4z"/>
<path d="M8577 8549 c7 -7 15 -10 18 -7 3 3 -2 9 -12 12 -14 6 -15 5 -6 -5z"/>
<path d="M8550 8540 c0 -5 5 -10 11 -10 5 0 7 5 4 10 -3 6 -8 10 -11 10 -2 0
-4 -4 -4 -10z"/>
<path d="M8661 8547 c2 -1 13 -9 24 -17 19 -14 19 -14 6 3 -7 9 -18 17 -24 17
-6 0 -8 -1 -6 -3z"/>
<path d="M3856 8474 c-23 -23 -20 -30 4 -9 11 10 20 20 20 22 0 7 -9 2 -24
-13z"/>
<path d="M8740 8477 c0 -4 9 -16 20 -27 11 -11 20 -16 20 -12 0 5 -9 17 -20
27 -11 10 -20 15 -20 12z"/>
<path d="M8660 8456 c0 -8 4 -17 9 -21 6 -3 9 4 8 15 -1 23 -17 28 -17 6z"/>
<path d="M3796 8413 c-6 -14 -5 -15 5 -6 7 7 10 15 7 18 -3 3 -9 -2 -12 -12z"/>
<path d="M8800 8412 c0 -6 12 -24 26 -39 l26 -28 -23 35 c-29 46 -29 45 -29
32z"/>
<path d="M3670 8375 c-7 -9 -11 -17 -9 -20 3 -2 10 5 17 15 14 24 10 26 -8 5z"/>
<path d="M3709 8320 c12 -7 13 -11 1 -24 -7 -9 -10 -19 -7 -22 3 -3 12 7 20
23 15 27 14 29 -6 30 -16 2 -18 0 -8 -7z"/>
<path d="M3615 8277 c-21 -51 -18 -59 5 -13 11 22 18 42 15 44 -3 3 -12 -11
-20 -31z"/>
<path d="M8880 8283 c0 -12 7 -23 15 -27 13 -5 14 -2 4 17 -17 32 -19 33 -19
10z"/>
<path d="M8811 8275 c0 -11 6 -31 14 -45 18 -32 18 -25 0 25 -8 22 -14 31 -14
20z"/>
<path d="M3685 8249 c-4 -6 -5 -12 -2 -15 2 -3 7 2 10 11 7 17 1 20 -8 4z"/>
<path d="M8911 8235 c0 -5 6 -21 14 -35 8 -14 14 -20 14 -15 0 6 -6 21 -14 35
-8 14 -14 21 -14 15z"/>
<path d="M3657 8203 c-2 -4 -7 -21 -10 -38 -6 -30 -6 -30 9 4 8 18 13 35 11
38 -3 2 -7 1 -10 -4z"/>
<path d="M3555 8150 c-3 -5 -1 -10 4 -10 6 0 11 5 11 10 0 6 -2 10 -4 10 -3 0
-8 -4 -11 -10z"/>
<path d="M3625 8121 c-3 -5 -1 -12 5 -16 5 -3 10 1 10 9 0 18 -6 21 -15 7z"/>
<path d="M8960 8116 c0 -8 4 -17 9 -20 5 -4 7 3 4 14 -6 23 -13 26 -13 6z"/>
<path d="M3600 8075 c-6 -16 -6 -33 0 -47 9 -21 10 -21 9 -3 -3 47 1 66 13 59
7 -4 8 -3 4 4 -11 17 -15 15 -26 -13z"/>
<path d="M8970 8051 c0 -25 6 -27 13 -6 4 8 2 17 -3 20 -6 4 -10 -3 -10 -14z"/>
<path d="M3528 8030 c-4 -14 -9 -36 -13 -50 -4 -16 0 -12 10 9 9 19 14 42 12
50 -2 10 -5 7 -9 -9z"/>
<path d="M8911 8025 c0 -11 4 -29 9 -40 l9 -20 0 20 c0 11 -4 29 -9 40 l-9 20
0 -20z"/>
<path d="M8984 8020 c-5 -5 -7 -31 -5 -57 l5 -48 6 55 c8 62 7 63 -6 50z"/>
<path d="M9002 7965 c-1 -11 3 -38 7 -60 7 -34 9 -35 9 -10 0 35 -15 101 -16
70z"/>
<path d="M8944 7945 c-3 -8 -4 -20 -2 -27 3 -7 7 -1 10 15 6 29 1 36 -8 12z"/>
<path d="M8991 7874 c0 -11 3 -14 6 -6 3 7 2 16 -1 19 -3 4 -6 -2 -5 -13z"/>
<path d="M8931 7864 c0 -11 3 -14 6 -6 3 7 2 16 -1 19 -3 4 -6 -2 -5 -13z"/>
<path d="M3503 7815 c0 -27 2 -38 4 -22 2 15 2 37 0 50 -2 12 -4 0 -4 -28z"/>
<path d="M8952 7790 c0 -14 2 -19 5 -12 2 6 2 18 0 25 -3 6 -5 1 -5 -13z"/>
<path d="M3552 7745 c0 -16 2 -22 5 -12 2 9 2 23 0 30 -3 6 -5 -1 -5 -18z"/>
<path d="M8933 7710 c0 -36 2 -50 4 -32 2 17 2 47 0 65 -2 17 -4 3 -4 -33z"/>
<path d="M9012 7750 c-1 -14 -5 -36 -8 -50 -5 -19 -4 -22 5 -14 7 7 11 28 8
50 -2 22 -4 28 -5 14z"/>
<path d="M3500 7709 c0 -8 4 -20 9 -27 7 -11 9 -11 14 1 3 9 -1 21 -9 27 -11
10 -14 10 -14 -1z"/>
<path d="M3591 7654 c0 -11 3 -14 6 -6 3 7 2 16 -1 19 -3 4 -6 -2 -5 -13z"/>
<path d="M3511 7644 c0 -11 3 -14 6 -6 3 7 2 16 -1 19 -3 4 -6 -2 -5 -13z"/>
<path d="M8916 7618 c-3 -13 -5 -34 -5 -48 1 -15 5 -7 10 19 9 47 6 68 -5 29z"/>
<path d="M8997 7620 c-3 -11 -1 -20 4 -20 5 0 9 9 9 20 0 11 -2 20 -4 20 -2 0
-6 -9 -9 -20z"/>
<path d="M3599 7600 c-6 -34 1 -71 12 -64 5 3 9 -2 9 -11 0 -9 -4 -14 -9 -11
-5 4 -4 -5 2 -19 l12 -25 3 28 c1 15 -4 50 -12 77 -11 41 -14 45 -17 25z"/>
<path d="M8972 7570 c0 -8 3 -26 7 -40 7 -24 7 -24 14 9 4 19 5 36 2 39 -3 3
-5 -3 -6 -14 0 -18 -1 -18 -9 1 -5 12 -8 14 -8 5z"/>
<path d="M3541 7540 c0 -8 4 -22 9 -30 12 -18 12 -2 0 25 -6 13 -9 15 -9 5z"/>
<path d="M8897 7521 c-4 -17 -3 -21 5 -13 5 5 8 16 6 23 -3 8 -7 3 -11 -10z"/>
<path d="M8946 7437 c3 -10 9 -15 12 -12 3 3 0 11 -7 18 -10 9 -11 8 -5 -6z"/>
<path d="M3586 7410 c9 -35 19 -44 19 -15 0 12 -3 21 -7 19 -3 -2 -9 2 -12 8
-3 7 -3 2 0 -12z"/>
<path d="M3691 7355 c0 -5 6 -19 14 -29 8 -11 15 -15 15 -10 0 6 -7 19 -15 30
-8 10 -14 15 -14 9z"/>
<path d="M8816 7333 c-6 -14 -5 -15 5 -6 7 7 10 15 7 18 -3 3 -9 -2 -12 -12z"/>
<path d="M3621 7324 c0 -11 3 -14 6 -6 3 7 2 16 -1 19 -3 4 -6 -2 -5 -13z"/>
<path d="M3640 7294 c1 -15 28 -46 33 -37 2 4 -4 17 -14 27 -11 11 -19 15 -19
10z"/>
<path d="M8870 7284 c0 -8 5 -12 10 -9 6 4 8 11 5 16 -9 14 -15 11 -15 -7z"/>
<path d="M8765 7260 c-3 -5 -1 -10 4 -10 6 0 11 5 11 10 0 6 -2 10 -4 10 -3 0
-8 -4 -11 -10z"/>
<path d="M3760 7254 c0 -12 37 -54 47 -54 4 0 -4 12 -18 28 -13 15 -25 29 -26
31 -2 2 -3 0 -3 -5z"/>
<path d="M8821 7207 c-13 -21 -12 -21 5 -5 10 10 16 20 13 22 -3 3 -11 -5 -18
-17z"/>
<path d="M3701 7203 c7 -12 15 -20 18 -17 3 2 -3 12 -13 22 -17 16 -18 16 -5
-5z"/>
<path d="M3752 7208 c-7 -7 -12 -16 -12 -21 0 -5 7 -1 16 8 9 9 14 18 12 20
-2 3 -10 -1 -16 -7z"/>
<path d="M3840 7155 c7 -8 17 -15 22 -15 5 0 3 7 -6 15 -8 8 -18 15 -22 15 -3
0 -1 -7 6 -15z"/>
<path d="M8671 7156 c-7 -8 -8 -17 -3 -20 6 -3 13 1 16 10 9 23 2 28 -13 10z"/>
<path d="M8702 7131 c-11 -6 -10 -11 3 -25 16 -16 19 -16 36 0 23 21 24 25 4
18 -8 -4 -15 -10 -15 -16 0 -5 -5 -6 -11 -3 -6 4 -8 13 -5 21 6 16 5 17 -12 5z"/>
<path d="M3796 7091 c21 -23 44 -22 44 2 0 7 -4 6 -10 -3 -7 -12 -12 -11 -32
5 l-23 19 21 -23z"/>
<path d="M3850 7100 c0 -5 5 -10 11 -10 5 0 7 5 4 10 -3 6 -8 10 -11 10 -2 0
-4 -4 -4 -10z"/>
<path d="M8585 7080 c-3 -5 -1 -10 4 -10 6 0 11 5 11 10 0 6 -2 10 -4 10 -3 0
-8 -4 -11 -10z"/>
<path d="M3950 7066 c0 -2 8 -10 18 -17 15 -13 16 -12 3 4 -13 16 -21 21 -21
13z"/>
<path d="M3850 7056 c0 -4 7 -14 15 -22 8 -9 15 -11 15 -6 0 5 -7 15 -15 22
-8 7 -15 9 -15 6z"/>
<path d="M3990 7031 c0 -5 8 -11 18 -15 9 -3 24 -9 32 -12 8 -3 4 4 -10 15
-27 22 -40 26 -40 12z"/>
<path d="M8510 7030 c-9 -6 -10 -10 -3 -10 6 0 15 5 18 10 8 12 4 12 -15 0z"/>
<path d="M8600 7000 c-9 -6 -10 -10 -3 -10 6 0 15 5 18 10 8 12 4 12 -15 0z"/>
<path d="M8408 6983 c-10 -2 -18 -9 -18 -14 0 -6 10 -5 23 2 37 20 36 23 -5
12z"/>
<path d="M4125 6950 c3 -5 8 -10 11 -10 2 0 4 5 4 10 0 6 -5 10 -11 10 -5 0
-7 -4 -4 -10z"/>
<path d="M4168 6948 c5 -5 16 -8 23 -6 8 3 3 7 -10 11 -17 4 -21 3 -13 -5z"/>
<path d="M8335 6950 c-19 -8 -19 -9 3 -9 12 -1 22 4 22 9 0 6 -1 10 -2 9 -2 0
-12 -4 -23 -9z"/>
<path d="M8138 6903 c7 -3 16 -2 19 1 4 3 -2 6 -13 5 -11 0 -14 -3 -6 -6z"/>
<path d="M7090 6889 c0 -5 5 -7 10 -4 6 3 10 8 10 11 0 2 -4 4 -10 4 -5 0 -10
-5 -10 -11z"/>
<path d="M7178 6893 c7 -3 16 -2 19 1 4 3 -2 6 -13 5 -11 0 -14 -3 -6 -6z"/>
<path d="M7398 6893 c23 -2 61 -2 85 0 23 2 4 4 -43 4 -47 0 -66 -2 -42 -4z"/>
<path d="M7563 6893 c20 -2 54 -2 75 0 20 2 3 4 -38 4 -41 0 -58 -2 -37 -4z"/>
<path d="M7698 6893 c12 -2 32 -2 45 0 12 2 2 4 -23 4 -25 0 -35 -2 -22 -4z"/>
<path d="M5362 5180 c-1 -943 -5 -1726 -8 -1740 -5 -18 -4 -22 5 -14 8 7 10
456 8 1740 l-2 1729 -3 -1715z"/>
<path d="M8008 6883 c7 -3 16 -2 19 1 4 3 -2 6 -13 5 -11 0 -14 -3 -6 -6z"/>
<path d="M8322 6874 c-14 -15 -7 -17 22 -5 15 6 16 9 5 13 -8 3 -20 -1 -27 -8z"/>
<path d="M8218 6843 c6 -2 18 -2 25 0 6 3 1 5 -13 5 -14 0 -19 -2 -12 -5z"/>
<path d="M8158 6833 c6 -2 18 -2 25 0 6 3 1 5 -13 5 -14 0 -19 -2 -12 -5z"/>
<path d="M7095 5170 c0 -905 1 -1275 2 -823 2 453 2 1193 0 1645 -1 453 -2 83
-2 -822z"/>
<path d="M7165 6770 c3 -5 8 -10 11 -10 2 0 4 5 4 10 0 6 -5 10 -11 10 -5 0
-7 -4 -4 -10z"/>
<path d="M7158 6743 c16 -6 18 -3208 2 -3216 -6 -3 -5 -4 2 -3 11 2 13 318 16
1614 2 1531 1 1612 -15 1611 -11 0 -13 -3 -5 -6z"/>
<path d="M7162 3438 c7 -15 15 -23 17 -17 2 6 -4 18 -13 27 -15 15 -15 15 -4
-10z"/>
<path d="M7092 3420 c0 -19 2 -27 5 -17 2 9 2 25 0 35 -3 9 -5 1 -5 -18z"/>
<path d="M7141 3403 c0 -12 -4 -30 -7 -40 -5 -17 -5 -17 6 0 6 10 9 28 7 40
-4 22 -4 22 -6 0z"/>
<path d="M5360 3388 c0 -19 2 -20 10 -8 13 19 13 30 0 30 -5 0 -10 -10 -10
-22z"/>
<path d="M7162 3365 c0 -16 2 -22 5 -12 2 9 2 23 0 30 -3 6 -5 -1 -5 -18z"/>
<path d="M5362 3340 c0 -14 2 -19 5 -12 2 6 2 18 0 25 -3 6 -5 1 -5 -13z"/>
<path d="M5377 3320 c-9 -34 -8 -48 2 -31 6 9 11 -2 15 -33 4 -25 11 -46 15
-46 5 0 3 21 -4 48 -7 26 -14 56 -17 67 -3 18 -5 17 -11 -5z"/>
<path d="M5302 3315 c0 -11 4 -31 8 -45 6 -20 8 -21 8 -5 0 11 -4 31 -8 45 -6
20 -8 21 -8 5z"/>
<path d="M7081 3304 c0 -11 3 -14 6 -6 3 7 2 16 -1 19 -3 4 -6 -2 -5 -13z"/>
<path d="M7150 3307 c0 -9 -4 -17 -9 -17 -5 0 -6 -10 -3 -22 5 -21 7 -20 14
11 5 18 7 36 4 39 -3 3 -6 -2 -6 -11z"/>
<path d="M5330 3197 c0 -7 7 -22 15 -33 13 -17 14 -16 4 14 -11 33 -19 41 -19
19z"/>
<path d="M7016 3145 c-3 -9 -6 -24 -5 -33 0 -9 5 -4 10 12 9 32 6 48 -5 21z"/>
<path d="M7091 3124 c0 -11 3 -14 6 -6 3 7 2 16 -1 19 -3 4 -6 -2 -5 -13z"/>
<path d="M5440 3115 c0 -5 5 -17 10 -25 5 -8 10 -10 10 -5 0 6 -5 17 -10 25
-5 8 -10 11 -10 5z"/>
<path d="M5381 3074 c0 -11 3 -14 6 -6 3 7 2 16 -1 19 -3 4 -6 -2 -5 -13z"/>
<path d="M6952 3025 c-6 -13 -7 -27 -3 -30 5 -2 11 8 14 23 7 35 3 38 -11 7z"/>
<path d="M5490 3021 c0 -5 5 -13 10 -16 6 -3 10 -2 10 4 0 5 -4 13 -10 16 -5
3 -10 2 -10 -4z"/>
<path d="M5420 3014 c0 -6 7 -19 16 -30 14 -18 14 -18 3 6 -14 31 -19 36 -19
24z"/>
<path d="M6910 2961 c-12 -24 -13 -34 -1 -27 9 6 22 46 15 46 -2 0 -8 -9 -14
-19z"/>
<path d="M6987 2940 c-10 -16 -16 -30 -13 -30 2 0 14 14 26 30 12 17 18 30 13
30 -5 0 -17 -13 -26 -30z"/>
<path d="M5460 2945 c0 -5 5 -17 10 -25 5 -8 10 -10 10 -5 0 6 -5 17 -10 25
-5 8 -10 11 -10 5z"/>
<path d="M5561 2933 c7 -12 15 -20 18 -17 3 2 -3 12 -13 22 -17 16 -18 16 -5
-5z"/>
<path d="M5490 2896 c0 -2 8 -10 18 -17 15 -13 16 -12 3 4 -13 16 -21 21 -21
13z"/>
<path d="M6850 2890 c-9 -6 -10 -10 -3 -10 6 0 15 5 18 10 8 12 4 12 -15 0z"/>
<path d="M6890 2869 c0 -5 5 -7 10 -4 6 3 10 8 10 11 0 2 -4 4 -10 4 -5 0 -10
-5 -10 -11z"/>
<path d="M6915 2853 l-17 -28 23 22 c12 12 20 25 17 28 -3 3 -13 -7 -23 -22z"/>
<path d="M5635 2850 c10 -11 20 -20 23 -20 3 0 -3 9 -13 20 -10 11 -20 20 -23
20 -3 0 3 -9 13 -20z"/>
<path d="M6797 2840 c-24 -23 -26 -28 -12 -34 9 -3 13 -2 10 4 -3 6 6 21 22
35 15 13 24 24 18 24 -5 -1 -23 -14 -38 -29z"/>
<path d="M5540 2840 c0 -5 5 -10 11 -10 5 0 7 5 4 10 -3 6 -8 10 -11 10 -2 0
-4 -4 -4 -10z"/>
<path d="M6747 2793 c-4 -3 -7 -11 -7 -17 0 -6 5 -5 12 2 6 6 9 14 7 17 -3 3
-9 2 -12 -2z"/>
<path d="M5717 2779 c7 -7 15 -10 18 -7 3 3 -2 9 -12 12 -14 6 -15 5 -6 -5z"/>
<path d="M6820 2759 c-35 -31 -35 -31 -3 -9 18 11 35 25 38 30 10 16 2 11 -35
-21z"/>
<path d="M5620 2766 c0 -2 8 -10 18 -17 15 -13 16 -12 3 4 -13 16 -21 21 -21
13z"/>
<path d="M5764 2745 c11 -8 24 -15 30 -15 5 0 1 7 -10 15 -10 8 -23 14 -29 14
-5 0 -1 -6 9 -14z"/>
<path d="M6765 2720 c-3 -5 -1 -10 4 -10 6 0 11 5 11 10 0 6 -2 10 -4 10 -3 0
-8 -4 -11 -10z"/>
<path d="M5810 2715 c0 -7 77 -45 92 -45 8 0 6 5 -5 11 -28 16 -87 40 -87 34z"/>
<path d="M6580 2690 c-9 -6 -10 -10 -3 -10 6 0 15 5 18 10 8 12 4 12 -15 0z"/>
<path d="M5730 2686 c0 -2 7 -9 15 -16 9 -7 15 -8 15 -2 0 5 -7 12 -15 16 -8
3 -15 4 -15 2z"/>
<path d="M6495 2660 c-13 -6 -15 -9 -5 -9 8 0 22 4 30 9 18 12 2 12 -25 0z"/>
<path d="M6406 2631 c-4 -5 3 -7 14 -4 23 6 26 13 6 13 -8 0 -17 -4 -20 -9z"/>
<path d="M6408 2583 c7 -3 16 -2 19 1 4 3 -2 6 -13 5 -11 0 -14 -3 -6 -6z"/>
<path d="M3557 1613 c-19 -18 -3 -25 42 -20 77 9 178 -10 260 -48 41 -20 76
-33 78 -31 17 17 -75 68 -164 91 -58 15 -204 21 -216 8z"/>
<path d="M8900 1593 c-99 -16 -189 -63 -253 -132 -83 -89 -120 -192 -120 -341
-2 -197 62 -335 195 -420 85 -55 164 -74 290 -68 214 11 351 107 299 210 -23
48 -61 48 -143 3 -167 -91 -331 -57 -396 83 -25 52 -27 68 -27 177 0 144 13
192 66 250 84 91 213 100 356 26 52 -27 90 -40 101 -37 51 16 72 89 40 138
-23 34 -126 87 -205 103 -65 14 -149 17 -203 8z"/>
<path d="M525 1579 c-16 -5 -36 -16 -42 -26 -20 -26 -16 -90 6 -112 24 -24
101 -34 210 -29 l80 4 3 -362 3 -362 24 -26 c30 -32 81 -43 122 -26 60 25 59
21 59 412 0 197 3 358 8 358 4 1 65 2 135 3 128 2 129 2 153 30 43 50 25 120
-35 137 -45 12 -684 12 -726 -1z"/>
<path d="M5865 1566 c-13 -13 -27 -40 -30 -60 -4 -19 -5 -158 -3 -308 6 -300
11 -334 69 -422 64 -97 181 -146 344 -146 221 0 347 89 390 274 13 55 15 121
13 353 l-3 285 -28 24 c-31 26 -92 33 -129 13 -43 -23 -48 -61 -48 -357 l0
-278 -27 -55 c-33 -64 -70 -88 -146 -96 -68 -7 -122 10 -165 50 -56 53 -62 95
-62 410 l0 279 -29 29 c-39 39 -109 41 -146 5z"/>
<path d="M11209 1561 l-29 -29 0 -411 c0 -237 4 -420 10 -435 19 -52 106 -72
153 -36 38 30 47 77 47 243 l0 147 215 0 215 0 0 -159 c0 -90 5 -172 11 -190
24 -69 130 -82 176 -22 9 12 12 123 13 444 l0 428 -25 24 c-34 35 -102 35
-142 1 l-28 -24 -5 -169 -5 -168 -210 0 -210 0 -6 160 c-3 88 -9 168 -13 177
-13 28 -53 48 -96 48 -33 0 -48 -6 -71 -29z"/>
<path d="M3328 1515 c-26 -19 -66 -58 -89 -87 -167 -210 -153 -502 33 -693 35
-36 72 -65 83 -65 13 0 -1 20 -52 73 -107 110 -153 218 -153 357 0 128 43 237
130 333 28 31 67 66 86 77 34 22 45 40 22 40 -7 0 -34 -16 -60 -35z"/>
<path d="M3512 1502 c-61 -22 -66 -26 -59 -46 5 -12 13 -12 59 6 71 27 184 27
262 -1 67 -23 139 -76 180 -131 31 -42 40 -47 51 -29 10 15 -37 81 -88 123
-77 63 -149 89 -257 93 -74 3 -106 -1 -148 -15z"/>
<path d="M3553 1406 c-140 -46 -229 -170 -227 -316 2 -91 45 -188 68 -151 3 4
-4 35 -15 67 -39 110 -5 233 85 310 79 67 213 82 308 34 49 -24 65 -23 54 5
-17 46 -189 79 -273 51z"/>
<path d="M4139 1203 c-1 -4 -1 -44 0 -88 2 -91 -16 -171 -56 -248 -15 -28 -29
-55 -31 -59 -2 -5 3 -8 12 -8 22 0 73 112 92 200 16 77 12 194 -7 205 -5 4
-10 3 -10 -2z"/>
<path d="M3904 1103 c1 -85 -20 -144 -69 -197 -28 -30 -33 -56 -11 -56 18 0
61 50 87 102 41 81 46 218 8 226 -13 2 -16 -10 -15 -75z"/>
<path d="M4030 1102 c0 -127 -66 -253 -168 -322 -29 -19 -52 -41 -52 -47 0
-26 40 -12 92 30 108 88 158 187 161 317 2 64 -1 75 -15 78 -16 3 -18 -5 -18
-56z"/>
<path d="M3598 1110 c-47 -36 -48 -54 -46 -405 l3 -330 90 0 90 0 3 333 c2
285 0 338 -13 366 -26 55 -83 71 -127 36z m88 -18 c40 -26 36 -120 -7 -154
-27 -23 -95 -24 -103 -2 -17 44 1 128 31 152 18 13 62 16 79 4z"/>
<path d="M3225 1060 c-8 -14 20 -112 50 -170 13 -25 45 -66 72 -92 46 -45 149
-106 160 -94 12 11 -8 36 -44 55 -96 49 -167 142 -197 257 -12 47 -28 65 -41
44z"/>
</g>
</svg>
